{"title":"France 5 - C dans l'air - La France et l'affaire des fuites","uid":6009225,"size":1840300921,"categoryP":"video","categoryS":"tv_shows","magnet":"?xt=urn:btih:5327074f98b09f75f94fd35547b4531550a16612&amp;dn=France+5+-+C+dans+l%5C%27air+-+La+France+et+l%5C%27affaire+des+fuites&amp;tr=udp%3A%2F%2Ftracker.openbittorrent.com%3A80&amp;tr=udp%3A%2F%2Fopen.demonii.com%3A1337&amp;tr=udp%3A%2F%2Ftracker.coppersurfer.tk%3A6969&amp;tr=udp%3A%2F%2Fexodus.desync.com%3A6969","seeders":0,"leechers":1,"uploader":"Carillon3","files":2,"time":1291419145,"description":"\nFrance 5 - C dans l'air - La France et l'affaire des fuites.avi\n\nFormat                           : AVI\nFormat/Info                      : Audio Video Interleave\nFile size                        : 1.71 GiB\nDuration                         : 1h 5mn\nOverall bit rate                 : 3 755 Kbps\nComment                          : Recorded &amp; Uploaded By Carillon3\n\nVideo\nID                               : 0\nFormat                           : MPEG Video\nFormat version                   : Version 2\nFormat profile                   : Main@Main\nFormat settings, BVOP            : Yes\nFormat settings, Matrix          : Default\nFormat_Settings_GOP              : M=3, N=21\nCodec ID                         : mpg2\nCodec ID/Info                    : (MPEG-1/2) FFmpeg\nCodec ID/Hint                    : Ffmpeg\nDuration                         : 1h 5mn\nBit rate mode                    : Variable\nBit rate                         : 3 550 Kbps\nNominal bit rate                 : 15.0 Mbps\nWidth                            : 720 pixels\nHeight                           : 576 pixels\nDisplay aspect ratio             : 16:9\nFrame rate                       : 25.000 fps\nStandard                         : PAL\nResolution                       : 8 bits\nColorimetry                      : 4:2:0\nScan type                        : Interlaced\nScan order                       : Top Field First\nBits/(Pixel*Frame)               : 0.342\nStream size                      : 1.62 GiB (95%)\n\nAudio\nID                               : 1\nFormat                           : MPEG Audio\nFormat version                   : Version 1\nFormat profile                   : Layer 3\nMode                             : Joint stereo\nCodec ID                         : 55\nCodec ID/Hint                    : MP3\nDuration                         : 1h 5mn\nBit rate mode                    : Constant\nBit rate                         : 192 Kbps\nChannel(s)                       : 2 channels\nSampling rate                    : 48.0 KHz\nStream size                      : 89.7 MiB (5%)\nAlignment                        : Aligned on interleaves\nInterleave, duration             : 24 ms (0.60 video frame)\nInterleave, preload duration     : 1008 ms\nLanguage                         : French\n\n\nRecorded &amp; Uploaded by Carillon3\nDownload &amp; seed\n","torrent":{"xt":"urn:btih:5327074f98b09f75f94fd35547b4531550a16612","amp;dn":"France+5+-+C+dans+l%5C%27air+-+La+France+et+l%5C%27affaire+des+fuites","amp;tr":["udp%3A%2F%2Ftracker.openbittorrent.com%3A80","udp%3A%2F%2Fopen.demonii.com%3A1337","udp%3A%2F%2Ftracker.coppersurfer.tk%3A6969","udp%3A%2F%2Fexodus.desync.com%3A6969"],"infoHash":"5327074f98b09f75f94fd35547b4531550a16612","infoHashBuffer":{"type":"Buffer","data":[83,39,7,79,152,176,159,117,249,79,211,85,71,180,83,21,80,161,102,18]},"announce":[],"urlList":[]}}